<svg xmlns="http://www.w3.org/2000/svg" width="238.05" height="189.422" viewBox="0 0 238.05 189.422">
  <g id="Group_1587" data-name="Group 1587" transform="translate(-557.004 -3423.578)">
    <g id="Group_1582" data-name="Group 1582" transform="translate(236.523 3012.488)">
      <path id="Path_1616" data-name="Path 1616" d="M558.521,451.221c.009-5.58.035-11.162-.054-16.741-.052-3.212.088-6.426.017-9.634a16.335,16.335,0,0,0-1.734-7.419,8,8,0,0,0-5.161-4.106c-4.631-1.327-9.509-1.227-14.287-1.2a.816.816,0,0,0-.251-.041c-6.017-.012-12.046.036-18.057-.257-5.8-.283-11.627-.322-17.436-.344-13.288-.05-26.576-.18-39.863-.312q-12.036-.12-24.063-.04-18.478.139-36.955.327-14.336.137-28.671.28l-1.43.014a.9.9,0,0,0-.128.014.833.833,0,0,0-.224-.032c-4.6-.007-9.2.052-13.8.058-5.246.007-10.488-.176-15.733-.173-3,0-6.011-.03-9.011.041a12.358,12.358,0,0,0-5.571,1.371,8.47,8.47,0,0,0-3.822,4.152c-.994,2.364-.9,5.149-.866,7.667.045,2.981.286,5.956.358,8.936.075,3.106.011,6.219,0,9.326-.013,6.413.142,12.8.264,19.215.121,6.375.4,12.8.158,19.171q-.354,9.452-.4,18.9c-.049,12.542.13,25.086-.577,37.615-.052.914-.123,1.826-.2,2.736a.872.872,0,0,0-.114,1.287c-.361,3.982-.737,7.936-.028,11.94.712,4.023,2.627,7.979,6.6,9.618,5.325,2.2,11.491,1.57,17.09,1.308,4.737-.222,9.478-.512,14.218-.648,5.216-.15,10.439-.147,15.656-.179q19.06-.116,38.121-.1,5.5.006,10.99-.016c-.02,2.1-.906,9.862-11.275,24.06a.876.876,0,0,0-.146.708l-10.267.143a.881.881,0,0,0-.869.88c0,.2-.008,4.822.164,7.122.225,3.005,3.859,3.643,6.868,3.649,1.1,0,10.078-.11,21.444-.252,18.066-.226,40.55-.506,44.865-.5,4.426.009,6-2.743,6.006-5.1l.012-6a.883.883,0,0,0-.262-.629.862.862,0,0,0-.632-.255l-10.922.152a.875.875,0,0,0-.165-.517c-10.655-14.713-10.779-21.838-10.641-23.4,9.956.087,19.913.182,29.87.177q19.226-.011,38.431.546c6.237.188,12.475.357,18.716.373,2.547.006,5.185-.056,7.49-1.284a13.335,13.335,0,0,0,4.475-4,10.363,10.363,0,0,0,1.728-6.374c-.1-3.135-.081-6.261-.027-9.4.109-6.286-.269-12.556-.328-18.841-.062-6.554.058-13.107.208-19.659.147-6.458-.009-12.906.037-19.363C558.413,474.537,558.5,462.879,558.521,451.221ZM323.651,464.16c-.024-6.323-.3-12.637-.289-18.963.012-5.947-.03-11.86-.281-17.8-.2-4.657-.855-10.685,4.071-13.133a13.5,13.5,0,0,1,6.184-1.029c3.053-.007,6.106-.053,9.159-.033,5.012.033,10.02.179,15.034.166,4.231-.011,8.461-.062,12.692-.056a.9.9,0,0,0,.126-.012.827.827,0,0,0,.227.031q12.8-.12,25.6-.251,18.793-.181,37.586-.34c7.753-.062,15.5-.122,23.254-.038q20.781.225,41.563.346c11.455.064,22.9.553,34.349.6q1.433.006,2.867.009a.81.81,0,0,0,.273.048c5.254,0,11.036-.435,16.054,1.452,2.459.925,3.71,3.425,4.33,5.841.706,2.749.433,5.652.363,8.456-.115,4.6.121,9.242.129,13.849q.031,19.023-.144,38.046c-.068,8.383.08,16.761-.107,25.143-.139,6.24-.245,12.482-.186,18.723.044,4.687.266,9.366.33,14.049L361.7,540.283l-39.1.265c.1-1.063.187-2.125.246-3.186.331-6.033.469-12.07.513-18.111.089-12.275-.122-24.552.389-36.821C324,476.34,323.673,470.251,323.651,464.16Zm154.928,130.5c-.006,3.109-3.246,3.344-4.239,3.342-4.328-.009-26.819.272-44.891.5-11.36.142-20.332.254-21.419.252-4.1-.008-5.044-1.1-5.113-2.018-.123-1.648-.152-4.644-.158-6.119l75.83-1.055Zm-11.987-6.7-52.633.732c10.359-14.293,11.358-22.238,11.361-24.748,7.63-.025,15.26-.055,22.891,0q3.876.027,7.751.061c-.162,2.277.377,9.649,10.63,23.955Zm90.242-34.946a9.159,9.159,0,0,1-1.9,6.551,10.51,10.51,0,0,1-5.543,3.623c-2.826.656-5.91.344-8.787.309-12.355-.151-24.7-.732-37.057-.845-12.547-.114-25.094-.044-37.641-.149-12.676-.106-25.353-.249-38.03-.178-13.825.077-27.65.051-41.474.1-12.811.046-25.582.139-38.379.724-5.9.27-12.1,1.062-17.9-.4a9.018,9.018,0,0,1-5.6-3.526,14.331,14.331,0,0,1-2.1-5.678,41.4,41.4,0,0,1,.023-11.237l39.276-.267,195.136-1.019c0,1.009,0,2.018-.017,3.028-.061,2.987-.119,5.973,0,8.959Z"/>
      <path id="Path_1617" data-name="Path 1617" d="M389.707,596.524a.865.865,0,0,0,.194.029c9.692.322,19.407-.311,29.1.058,7.056.269,14.129.093,21.186-.052,7.207-.148,14.406-.208,21.614-.249,11.364-.065,22.726-.272,34.09-.251h.005c8.165.013,16.33-.073,24.494-.164,5.228-.059,10.455-.139,15.683-.188q9.573-.09,19.147-.165,10.356-.086,20.711-.176c4.7-.043,9.4-.077,14.1-.153,1.322-.022,2.644-.044,3.967-.04a24.692,24.692,0,0,0,6.052-.3,2.307,2.307,0,0,0,1.937-1.736,23.018,23.018,0,0,0,.4-3.391c.558-7.5.3-15.023.687-22.526.264-5.151.581-10.272.556-15.433-.012-2.52.041-5.04.1-7.559.155-6.814.393-13.627.646-20.438q.262-7.082.558-14.162.015-.368.031-.735c.013-3.8.229-7.612-.015-11.415a17.117,17.117,0,0,0-.821-4.943,3.5,3.5,0,0,0-2.468-2.293,21.866,21.866,0,0,0-5.2-.751c-2.071-.128-4.147-.148-6.222-.143q-7.7.02-15.389-.133c-12.891-.263-25.777-.155-38.669-.068-11.859.08-23.717.11-35.574-.15-10.307-.226-20.613-.564-30.922-.712q-1.692-.024-3.383-.039c-5.212-.005-10.421.212-15.632.289-4.887.072-9.775.046-14.662.118-9.38.139-18.764.1-28.142.286-5.776.115-11.552.266-17.33.258a.782.782,0,0,0-.368.087.729.729,0,0,0-.612.745c-.026,11.4-.375,22.807-.378,34.212,0,3.916.057,7.833.088,11.749.094,11.78.325,23.589-.034,35.366-.086,2.829-.381,5.642-.437,8.473-.105,5.309.143,10.617.138,15.926a.749.749,0,0,0,.774.769Zm31.3-106.1c9.258,0,18.519-.212,27.777-.277,5.84-.041,11.676-.316,17.516-.31,9.959.082,19.916.406,29.872.648,11.228.272,22.453.347,33.684.29,12.626-.063,25.259-.3,37.885-.1,6.171.093,12.341.289,18.512.292,3.729,0,7.466-.118,11.188.189a11.474,11.474,0,0,1,4.449.882c.876.485,1.066,2.058,1.218,3a64.557,64.557,0,0,1,.3,11.5c-.016.785-.031,1.569-.034,2.354q-.215,5.038-.406,10.078-.388,10.034-.693,20.07c-.086,3.005-.164,6.011-.208,9.018-.045,3.077.042,6.155-.058,9.231-.179,5.515-.671,11.008-.706,16.529q-.032,5.017-.207,10.033a57.405,57.405,0,0,1-.6,8.652c-.029.154-.079.307-.1.461l-.009.054a6.055,6.055,0,0,1-1.6.47c-2.309.257-4.68.073-7,.1q-6.15.085-12.3.152-9.922.095-19.844.173l-19.975.169q-6.8.061-13.6.151-12.823.177-25.648.228-2.355.009-4.709.007h0c-10.077-.016-20.152.144-30.228.225-7.545.061-15.084.058-22.627.219-7.243.154-14.5.354-21.742.177-4.8-.117-9.583-.134-14.38-.118-5.4.018-10.818.162-16.217.006-.015-4.469-.187-8.937-.158-13.406.02-3,.287-5.969.414-8.96.214-5.027.181-10.068.182-15.1,0-10.864-.146-21.727-.19-32.592-.046-11.38.332-22.76.374-34.14,9.961.006,19.909-.354,29.861-.356Z" transform="translate(-56.248 -63.556)"/>
      <path id="Path_1618" data-name="Path 1618" d="M650.626,666.958a10.669,10.669,0,0,0,8.225,1.987c3.23.027,43.649.356,73.2.415,15.437.031,27.911-.012,30.563-.211a10.044,10.044,0,0,0,7.958-4.373,10.357,10.357,0,0,0,1.615-3.915.775.775,0,0,0,.008-.109c0-.46.266-46.1-.087-57.237a8.2,8.2,0,0,0-2.663-6.114c-3.419-3.055-8.878-2.742-9.387-2.705l-102.345.8h-.005c-4.361.064-7.513,1.259-9.369,3.552a8.6,8.6,0,0,0-1.669,6.523l-.1,50.312C646.558,661.03,647.923,664.757,650.626,666.958Zm119.982-6.277a8.9,8.9,0,0,1-1.352,3.209,8.461,8.461,0,0,1-6.761,3.677c-7.707.577-102.75-.2-103.709-.209h0a.8.8,0,0,0-.162.016,9.237,9.237,0,0,1-7-1.656c-2.3-1.886-3.469-5.194-3.46-9.832l.091-45.785,122.372-1.463c.185,15.609-.01,50.33-.02,52.044ZM649.583,600.032c1.547-1.9,4.287-2.892,8.141-2.949l102.371-.8h.057c.052,0,5.239-.378,8.239,2.309a6.673,6.673,0,0,1,2.13,4.977c.029.933.055,2.11.076,3.483L648.25,608.515l.006-3.009a.82.82,0,0,0-.015-.153,7.107,7.107,0,0,1,1.342-5.321Z" transform="translate(-268.585 -151.21)"/>
      <path id="Path_1619" data-name="Path 1619" d="M678.414,632.313a2.652,2.652,0,0,0,1.889-.827c1.25-1.245,1.3-2.57.149-3.728a2.939,2.939,0,0,0-2.316-.994,2.8,2.8,0,0,0-2.03,1.184c-.934,1.24-1.22,1.979.184,3.389a3.028,3.028,0,0,0,2.124.976Zm-1.463-3.729a1.765,1.765,0,0,1,1.258-.765h.1a2.027,2.027,0,0,1,1.4.689c.741.744.7,1.391-.146,2.232a1.642,1.642,0,0,1-2.516-.147C676.129,629.675,676.223,629.551,676.951,628.584Z" transform="translate(-292.266 -177.638)"/>
      <path id="Path_1620" data-name="Path 1620" d="M715.343,635.263a2.307,2.307,0,0,0,.94.2,3.078,3.078,0,0,0,2.478-1.366,2.243,2.243,0,0,0,.015-1.919,2.709,2.709,0,0,0-1.585-1.7,2.584,2.584,0,0,0-2.155.243c-1.3.727-1.739,1.3-1.106,2.935a2.768,2.768,0,0,0,1.413,1.607Zm.211-3.619a1.764,1.764,0,0,1,.857-.243,1.247,1.247,0,0,1,.422.072,1.729,1.729,0,0,1,.956,1.083,1.233,1.233,0,0,1,.038,1.041,1.719,1.719,0,0,1-.945.688,1.423,1.423,0,0,1-1.108.011,1.744,1.744,0,0,1-.856-1.022c-.4-1.047-.306-1.1.636-1.629Z" transform="translate(-323.833 -180.591)"/>
      <path id="Path_1621" data-name="Path 1621" d="M753.315,631.979a3.914,3.914,0,0,0,1.093.167,2.641,2.641,0,0,0,2.561-1.745,2.693,2.693,0,0,0-.122-2.213,2.758,2.758,0,0,0-1.6-1.458c-1.839-.519-3.219.13-3.692,1.736a2.632,2.632,0,0,0,1.76,3.513Zm-.743-3.213a1.444,1.444,0,0,1,1.5-1.156,3.333,3.333,0,0,1,.889.14,1.745,1.745,0,0,1,.936.906,1.672,1.672,0,0,1,.089,1.352,1.8,1.8,0,0,1-2.373.956,1.585,1.585,0,0,1-1.04-2.2Z" transform="translate(-354.934 -177.473)"/>
      <path id="Path_1622" data-name="Path 1622" d="M970.939,1167.6a6.437,6.437,0,1,0,6.424,6.45A6.437,6.437,0,0,0,970.939,1167.6Zm-.022,11.11a4.673,4.673,0,1,1,4.683-4.664,4.673,4.673,0,0,1-4.683,4.664Z" transform="translate(-530.44 -623.099)"/>
      <path id="Path_1623" data-name="Path 1623" d="M742.49,772.843c.464,0,.841-.629.842-1.408s-.375-1.412-.839-1.414l-33.309-.112c-.464,0-.841.629-.842,1.408s.375,1.412.839,1.414Z" transform="translate(-319.464 -295.546)"/>
      <path id="Path_1624" data-name="Path 1624" d="M798.575,818.936l-86.442-.173a.882.882,0,1,0,0,1.763l86.442.173a.882.882,0,1,0,0-1.763Z" transform="translate(-321.859 -335.783)"/>
      <path id="Path_1625" data-name="Path 1625" d="M798.49,861.838l-86.442-.173a.882.882,0,0,0,0,1.764l86.442.173a.882.882,0,0,0,0-1.764Z" transform="translate(-321.789 -371.119)"/>
      <path id="Path_1626" data-name="Path 1626" d="M798.414,899.407l-86.442-.173a.882.882,0,1,0,0,1.763l86.442.173a.882.882,0,0,0,0-1.764Z" transform="translate(-321.727 -402.063)"/>
    </g>
    <line id="Line_329" data-name="Line 329" x2="4" y2="4" transform="translate(787.5 3533.5)" fill="none" stroke="#707070" stroke-linecap="round" stroke-width="1"/>
    <line id="Line_335" data-name="Line 335" x2="17" y2="17" transform="translate(774.5 3546.5)" fill="none" stroke="#707070" stroke-linecap="round" stroke-width="1"/>
    <line id="Line_428" data-name="Line 428" x2="2.503" y2="2.503" transform="translate(710.675 3603.556)" fill="none" stroke="#707070" stroke-linecap="round" stroke-width="1"/>
    <line id="Line_375" data-name="Line 375" x2="10" y2="10" transform="translate(769.5 3519.5)" fill="none" stroke="#707070" stroke-linecap="round" stroke-width="1"/>
    <line id="Line_427" data-name="Line 427" x2="5.678" y2="5.436" transform="translate(707.5 3603.5)" fill="none" stroke="#707070" stroke-linecap="round" stroke-width="1"/>
    <line id="Line_457" data-name="Line 457" x2="12.441" y2="16.287" transform="translate(687.5 3582.5)" fill="none" stroke="#707070" stroke-linecap="round" stroke-width="1"/>
    <line id="Line_338" data-name="Line 338" x2="24" y2="23" transform="translate(765.5 3548.5)" fill="none" stroke="#707070" stroke-linecap="round" stroke-width="1"/>
    <line id="Line_483" data-name="Line 483" x2="4.449" y2="3.708" transform="translate(769.051 3429.646)" fill="none" stroke="#707070" stroke-linecap="round" stroke-width="1"/>
    <line id="Line_420" data-name="Line 420" x2="6.052" y2="6.062" transform="translate(704.5 3603.5)" fill="none" stroke="#707070" stroke-linecap="round" stroke-width="1"/>
    <line id="Line_458" data-name="Line 458" x2="10.192" y2="14.062" transform="translate(686.5 3585.5)" fill="none" stroke="#707070" stroke-linecap="round" stroke-width="1"/>
    <line id="Line_378" data-name="Line 378" x2="18" y2="18" transform="translate(761.5 3521.5)" fill="none" stroke="#707070" stroke-linecap="round" stroke-width="1"/>
    <line id="Line_339" data-name="Line 339" x2="24" y2="24" transform="translate(762.5 3550.5)" fill="none" stroke="#707070" stroke-linecap="round" stroke-width="1"/>
    <line id="Line_467" data-name="Line 467" x2="6.674" y2="6.674" transform="translate(764.601 3428.905)" fill="none" stroke="#707070" stroke-linecap="round" stroke-width="1"/>
    <line id="Line_421" data-name="Line 421" x2="6.114" y2="6.001" transform="translate(701.5 3603.5)" fill="none" stroke="#707070" stroke-linecap="round" stroke-width="1"/>
    <line id="Line_459" data-name="Line 459" x2="8.556" y2="10.986" transform="translate(684.5 3588.5)" fill="none" stroke="#707070" stroke-linecap="round" stroke-width="1"/>
    <line id="Line_468" data-name="Line 468" x2="5.933" y2="5.933" transform="translate(761.635 3429.646)" fill="none" stroke="#707070" stroke-linecap="round" stroke-width="1"/>
    <line id="Line_422" data-name="Line 422" x2="6.137" y2="6.001" transform="translate(698.5 3603.5)" fill="none" stroke="#707070" stroke-linecap="round" stroke-width="1"/>
    <line id="Line_461" data-name="Line 461" x2="6.873" y2="8.986" transform="translate(682.5 3590.5)" fill="none" stroke="#707070" stroke-linecap="round" stroke-width="1"/>
    <line id="Line_380" data-name="Line 380" x2="15" y2="15" transform="translate(754.5 3525.5)" fill="none" stroke="#707070" stroke-linecap="round" stroke-width="1"/>
    <line id="Line_341" data-name="Line 341" x2="18" y2="18" transform="translate(757.5 3556.5)" fill="none" stroke="#707070" stroke-linecap="round" stroke-width="1"/>
    <line id="Line_469" data-name="Line 469" x2="6.674" y2="6.674" transform="translate(757.927 3428.905)" fill="none" stroke="#707070" stroke-linecap="round" stroke-width="1"/>
    <line id="Line_423" data-name="Line 423" x2="6.358" y2="6.001" transform="translate(695.5 3603.5)" fill="none" stroke="#707070" stroke-linecap="round" stroke-width="1"/>
    <line id="Line_462" data-name="Line 462" x2="5.434" y2="6.986" transform="translate(680.5 3592.5)" fill="none" stroke="#707070" stroke-linecap="round" stroke-width="1"/>
    <line id="Line_470" data-name="Line 470" x2="6.674" y2="6.674" transform="translate(753.478 3428.905)" fill="none" stroke="#707070" stroke-linecap="round" stroke-width="1"/>
    <line id="Line_424" data-name="Line 424" x2="6.523" y2="6.001" transform="translate(692.5 3603.5)" fill="none" stroke="#707070" stroke-linecap="round" stroke-width="1"/>
    <line id="Line_463" data-name="Line 463" x2="3.926" y2="4.986" transform="translate(678.5 3594.5)" fill="none" stroke="#707070" stroke-linecap="round" stroke-width="1"/>
    <line id="Line_382" data-name="Line 382" x2="12" y2="12" transform="translate(747.5 3528.5)" fill="none" stroke="#707070" stroke-linecap="round" stroke-width="1"/>
    <line id="Line_351" data-name="Line 351" x2="5" y2="5" transform="translate(786.5 3536.5)" fill="none" stroke="#707070" stroke-linecap="round" stroke-width="1"/>
    <line id="Line_352" data-name="Line 352" x2="7" y2="7" transform="translate(785.5 3539.5)" fill="none" stroke="#707070" stroke-linecap="round" stroke-width="1"/>
    <line id="Line_353" data-name="Line 353" x2="7" y2="7" transform="translate(784.5 3543.5)" fill="none" stroke="#707070" stroke-linecap="round" stroke-width="1"/>
    <line id="Line_354" data-name="Line 354" x2="5" y2="5" transform="translate(782.5 3545.5)" fill="none" stroke="#707070" stroke-linecap="round" stroke-width="1"/>
    <line id="Line_359" data-name="Line 359" x2="3" y2="3" transform="translate(788.5 3529.5)" fill="none" stroke="#707070" stroke-linecap="round" stroke-width="1"/>
    <line id="Line_361" data-name="Line 361" x2="11" y2="11" transform="translate(753.5 3563.5)" fill="none" stroke="#707070" stroke-linecap="round" stroke-width="1"/>
    <line id="Line_471" data-name="Line 471" x2="6.674" y2="6.674" transform="translate(749.77 3428.905)" fill="none" stroke="#707070" stroke-linecap="round" stroke-width="1"/>
    <line id="Line_425" data-name="Line 425" x2="6.748" y2="6.001" transform="translate(689.5 3603.5)" fill="none" stroke="#707070" stroke-linecap="round" stroke-width="1"/>
    <line id="Line_464" data-name="Line 464" x2="2.492" y2="2.987" transform="translate(676.5 3596.5)" fill="none" stroke="#707070" stroke-linecap="round" stroke-width="1"/>
    <line id="Line_365" data-name="Line 365" x2="15" y2="15" transform="translate(776.5 3543.5)" fill="none" stroke="#707070" stroke-linecap="round" stroke-width="1"/>
    <line id="Line_431" data-name="Line 431" x2="0.939" y2="0.939" transform="translate(713.239 3603.556)" fill="none" stroke="#707070" stroke-linecap="round" stroke-width="1"/>
    <line id="Line_472" data-name="Line 472" x2="6.674" y2="6.674" transform="translate(746.062 3428.905)" fill="none" stroke="#707070" stroke-linecap="round" stroke-width="1"/>
    <line id="Line_426" data-name="Line 426" x2="5.853" y2="6.001" transform="translate(686.5 3603.5)" fill="none" stroke="#707070" stroke-linecap="round" stroke-width="1"/>
    <line id="Line_465" data-name="Line 465" x2="1.673" y2="1.986" transform="translate(674.5 3597.5)" fill="none" stroke="#707070" stroke-linecap="round" stroke-width="1"/>
    <line id="Line_384" data-name="Line 384" x2="8" y2="8" transform="translate(741.5 3532.5)" fill="none" stroke="#707070" stroke-linecap="round" stroke-width="1"/>
    <line id="Line_367" data-name="Line 367" x2="9" y2="9" transform="translate(750.5 3565.5)" fill="none" stroke="#707070" stroke-linecap="round" stroke-width="1"/>
    <line id="Line_473" data-name="Line 473" x2="6.674" y2="6.674" transform="translate(741.612 3428.905)" fill="none" stroke="#707070" stroke-linecap="round" stroke-width="1"/>
    <line id="Line_429" data-name="Line 429" x2="4.55" y2="5.001" transform="translate(684.5 3604.5)" fill="none" stroke="#707070" stroke-linecap="round" stroke-width="1"/>
    <line id="Line_368" data-name="Line 368" x2="8" y2="8" transform="translate(744.5 3566.5)" fill="none" stroke="#707070" stroke-linecap="round" stroke-width="1"/>
    <line id="Line_474" data-name="Line 474" x2="5.933" y2="5.933" transform="translate(738.646 3429.646)" fill="none" stroke="#707070" stroke-linecap="round" stroke-width="1"/>
    <line id="Line_430" data-name="Line 430" x2="2.816" y2="2.816" transform="translate(682.89 3606.685)" fill="none" stroke="#707070" stroke-linecap="round" stroke-width="1"/>
    <line id="Line_386" data-name="Line 386" x2="6" y2="6" transform="translate(732.5 3534.5)" fill="none" stroke="#707070" stroke-linecap="round" stroke-width="1"/>
    <line id="Line_475" data-name="Line 475" x2="5.191" y2="5.191" transform="translate(735.68 3430.388)" fill="none" stroke="#707070" stroke-linecap="round" stroke-width="1"/>
    <line id="Line_432" data-name="Line 432" x2="2.19" y2="2.19" transform="translate(680.29 3607.311)" fill="none" stroke="#707070" stroke-linecap="round" stroke-width="1"/>
    <line id="Line_476" data-name="Line 476" x2="3.708" y2="3.708" transform="translate(733.455 3431.871)" fill="none" stroke="#707070" stroke-linecap="round" stroke-width="1"/>
    <line id="Line_433" data-name="Line 433" x2="1.564" y2="1.564" transform="translate(677.798 3607.937)" fill="none" stroke="#707070" stroke-linecap="round" stroke-width="1"/>
    <line id="Line_388" data-name="Line 388" x2="5" y2="5" transform="translate(723.5 3535.5)" fill="none" stroke="#707070" stroke-linecap="round" stroke-width="1"/>
    <line id="Line_390" data-name="Line 390" x2="3" y2="3" transform="translate(715.5 3537.5)" fill="none" stroke="#707070" stroke-linecap="round" stroke-width="1"/>
    <line id="Line_392" data-name="Line 392" x2="2" y2="2" transform="translate(707.5 3538.5)" fill="none" stroke="#707070" stroke-linecap="round" stroke-width="1"/>
    <line id="Line_393" data-name="Line 393" x2="5" y2="5" transform="translate(737.5 3569.5)" fill="none" stroke="#707070" stroke-linecap="round" stroke-width="1"/>
    <line id="Line_477" data-name="Line 477" x2="3.708" y2="3.708" transform="translate(729.747 3431.871)" fill="none" stroke="#707070" stroke-linecap="round" stroke-width="1"/>
    <line id="Line_434" data-name="Line 434" x2="1.564" y2="1.564" transform="translate(674.303 3607.937)" fill="none" stroke="#707070" stroke-linecap="round" stroke-width="1"/>
    <line id="Line_478" data-name="Line 478" x2="3.708" y2="3.708" transform="translate(725.298 3431.871)" fill="none" stroke="#707070" stroke-linecap="round" stroke-width="1"/>
    <line id="Line_435" data-name="Line 435" x2="1.564" y2="1.564" transform="translate(671.426 3607.937)" fill="none" stroke="#707070" stroke-linecap="round" stroke-width="1"/>
    <line id="Line_395" data-name="Line 395" x2="5" y2="5" transform="translate(730.5 3569.5)" fill="none" stroke="#707070" stroke-linecap="round" stroke-width="1"/>
    <line id="Line_479" data-name="Line 479" x2="3.708" y2="3.708" transform="translate(720.848 3431.871)" fill="none" stroke="#707070" stroke-linecap="round" stroke-width="1"/>
    <line id="Line_480" data-name="Line 480" x2="3.708" y2="3.708" transform="translate(716.399 3431.871)" fill="none" stroke="#707070" stroke-linecap="round" stroke-width="1"/>
    <line id="Line_397" data-name="Line 397" x2="3" y2="3" transform="translate(725.5 3571.5)" fill="none" stroke="#707070" stroke-linecap="round" stroke-width="1"/>
    <line id="Line_481" data-name="Line 481" x2="2.225" y2="2.225" transform="translate(714.174 3433.354)" fill="none" stroke="#707070" stroke-linecap="round" stroke-width="1"/>
    <line id="Line_482" data-name="Line 482" x2="2.225" y2="2.225" transform="translate(710.466 3433.354)" fill="none" stroke="#707070" stroke-linecap="round" stroke-width="1"/>
    <line id="Line_399" data-name="Line 399" x2="3" y2="3" transform="translate(720.5 3571.5)" fill="none" stroke="#707070" stroke-linecap="round" stroke-width="1"/>
    <line id="Line_484" data-name="Line 484" x2="2.225" y2="2.225" transform="translate(707.5 3433.354)" fill="none" stroke="#707070" stroke-linecap="round" stroke-width="1"/>
    <line id="Line_400" data-name="Line 400" x2="3" y2="3" transform="translate(788.5 3525.5)" fill="none" stroke="#707070" stroke-linecap="round" stroke-width="1"/>
    <line id="Line_401" data-name="Line 401" x2="2" y2="2" transform="translate(789.5 3522.5)" fill="none" stroke="#707070" stroke-linecap="round" stroke-width="1"/>
    <line id="Line_402" data-name="Line 402" x2="2" y2="2" transform="translate(789.5 3518.5)" fill="none" stroke="#707070" stroke-linecap="round" stroke-width="1"/>
    <line id="Line_403" data-name="Line 403" x2="2" y2="2" transform="translate(789.5 3514.5)" fill="none" stroke="#707070" stroke-linecap="round" stroke-width="1"/>
    <line id="Line_404" data-name="Line 404" x2="2" y2="2" transform="translate(789.5 3510.5)" fill="none" stroke="#707070" stroke-linecap="round" stroke-width="1"/>
    <line id="Line_405" data-name="Line 405" x2="2" y2="2" transform="translate(789.5 3506.5)" fill="none" stroke="#707070" stroke-linecap="round" stroke-width="1"/>
    <line id="Line_406" data-name="Line 406" x2="2" y2="2" transform="translate(789.5 3502.5)" fill="none" stroke="#707070" stroke-linecap="round" stroke-width="1"/>
    <line id="Line_407" data-name="Line 407" x2="2" y2="2" transform="translate(789.5 3499.5)" fill="none" stroke="#707070" stroke-linecap="round" stroke-width="1"/>
    <line id="Line_408" data-name="Line 408" x2="2" y2="2" transform="translate(789.5 3495.5)" fill="none" stroke="#707070" stroke-linecap="round" stroke-width="1"/>
    <line id="Line_409" data-name="Line 409" x2="2" y2="2" transform="translate(789.5 3491.5)" fill="none" stroke="#707070" stroke-linecap="round" stroke-width="1"/>
    <line id="Line_410" data-name="Line 410" x2="2" y2="2" transform="translate(789.5 3487.5)" fill="none" stroke="#707070" stroke-linecap="round" stroke-width="1"/>
    <line id="Line_411" data-name="Line 411" x2="2" y2="2" transform="translate(789.5 3483.5)" fill="none" stroke="#707070" stroke-linecap="round" stroke-width="1"/>
    <line id="Line_412" data-name="Line 412" x2="2" y2="2" transform="translate(789.5 3479.5)" fill="none" stroke="#707070" stroke-linecap="round" stroke-width="1"/>
    <line id="Line_413" data-name="Line 413" x2="5" y2="5" transform="translate(775.5 3515.5)" fill="none" stroke="#707070" stroke-linecap="round" stroke-width="1"/>
    <line id="Line_415" data-name="Line 415" x2="3" y2="3" transform="translate(777.5 3510.5)" fill="none" stroke="#707070" stroke-linecap="round" stroke-width="1"/>
    <line id="Line_417" data-name="Line 417" x2="3" y2="3" transform="translate(778.5 3503.5)" fill="none" stroke="#707070" stroke-linecap="round" stroke-width="1"/>
    <line id="Line_419" data-name="Line 419" x2="2" y2="2" transform="translate(779.5 3497.5)" fill="none" stroke="#707070" stroke-linecap="round" stroke-width="1"/>
    <line id="Line_466" data-name="Line 466" x2="9.441" y2="14.287" transform="translate(688.5 3578.5)" fill="none" stroke="#707070" stroke-linecap="round" stroke-width="1"/>
    <line id="Line_485" data-name="Line 485" x2="13" y2="13" transform="translate(757.5 3561.5)" fill="none" stroke="#707070" stroke-linecap="round" stroke-width="1"/>
    <line id="Line_486" data-name="Line 486" x2="19" y2="19" transform="translate(762.5 3555.5)" fill="none" stroke="#707070" stroke-linecap="round" stroke-width="1"/>
    <line id="Line_487" data-name="Line 487" x2="21" y2="21" transform="translate(770.5 3547.5)" fill="none" stroke="#707070" stroke-linecap="round" stroke-width="1"/>
  </g>
</svg>
